<svg width="21" height="20" viewBox="0 0 21 20" fill="none" xmlns="http://www.w3.org/2000/svg">
<rect x="3.52246" y="2.29163" width="13.9554" height="15.4167" stroke="#27B9B1" stroke-linecap="square"/>
<path d="M10.6825 12.635C10.2567 12.635 9.86131 12.5662 9.49635 12.4286C9.13139 12.2858 8.82117 12.0926 8.56569 11.8492C8.31022 11.6059 8.12165 11.3254 8 11.008L8.91241 10.6746C9.07664 11.0397 9.31691 11.3201 9.63321 11.5159C9.94951 11.7117 10.3145 11.8096 10.7281 11.8096C10.9714 11.8096 11.1843 11.7778 11.3668 11.7143C11.5493 11.6455 11.6892 11.5503 11.7865 11.4286C11.8899 11.3069 11.9416 11.1667 11.9416 11.008C11.9416 10.791 11.8717 10.6191 11.7318 10.4921C11.5918 10.3651 11.385 10.2646 11.1113 10.1905L9.83394 9.84131C9.32299 9.70374 8.9337 9.49475 8.66606 9.21433C8.39842 8.92861 8.2646 8.59528 8.2646 8.21433C8.2646 7.88099 8.35888 7.58999 8.54745 7.34131C8.73601 7.08734 8.99453 6.88893 9.32299 6.74607C9.65754 6.60322 10.0377 6.53179 10.4635 6.53179C10.871 6.53179 11.2421 6.59528 11.5766 6.72226C11.9112 6.84396 12.1971 7.01327 12.4343 7.2302C12.6776 7.44713 12.854 7.69845 12.9635 7.98417L12.0693 8.32544C11.9355 8.01327 11.7257 7.77253 11.4398 7.60322C11.16 7.4339 10.8346 7.34925 10.4635 7.34925C10.2384 7.34925 10.0408 7.38364 9.87044 7.45242C9.70012 7.51591 9.5663 7.61115 9.46898 7.73814C9.37774 7.85983 9.33212 8.00269 9.33212 8.16671C9.33212 8.35718 9.40207 8.5265 9.54197 8.67464C9.68187 8.82279 9.89477 8.9339 10.1807 9.00798L11.3668 9.33337C11.9082 9.47623 12.3157 9.68258 12.5894 9.95242C12.8631 10.217 13 10.5477 13 10.9445C13 11.2725 12.8996 11.5635 12.6989 11.8175C12.5043 12.0715 12.2336 12.2725 11.8869 12.4207C11.5401 12.5635 11.1387 12.635 10.6825 12.635ZM10.2628 13.3334V5.83337H10.9927V13.3334H10.2628Z" fill="#27B9B1"/>
</svg>
