<svg width="21" height="20" viewBox="0 0 21 20" fill="none" xmlns="http://www.w3.org/2000/svg">
<path d="M17.0223 2.23926H15.4702V3.79137C15.4702 4.10179 15.2116 4.30874 14.9529 4.30874C14.6942 4.30874 14.4355 4.10179 14.4355 3.79137V2.23926H6.15759V3.79137C6.15759 4.10179 5.89891 4.30874 5.64022 4.30874C5.38154 4.30874 5.12285 4.10179 5.12285 3.79137V2.23926H3.57075C2.79469 2.23926 2.22559 2.91184 2.22559 3.79137V5.6539H18.7814V3.79137C18.7814 2.91184 17.8501 2.23926 17.0223 2.23926ZM2.22559 6.74037V16.2082C2.22559 17.1395 2.79469 17.7603 3.62248 17.7603H17.0741C17.9019 17.7603 18.8331 17.0878 18.8331 16.2082V6.74037H2.22559ZM6.83017 15.4322H5.58849C5.38154 15.4322 5.17459 15.277 5.17459 15.0183V13.7249C5.17459 13.5179 5.3298 13.311 5.58849 13.311H6.88191C7.08886 13.311 7.29581 13.4662 7.29581 13.7249V15.0183C7.24407 15.277 7.08886 15.4322 6.83017 15.4322ZM6.83017 10.7759H5.58849C5.38154 10.7759 5.17459 10.6206 5.17459 10.362V9.06853C5.17459 8.86159 5.3298 8.65464 5.58849 8.65464H6.88191C7.08886 8.65464 7.29581 8.80985 7.29581 9.06853V10.362C7.24407 10.6206 7.08886 10.7759 6.83017 10.7759ZM10.9691 15.4322H9.6757C9.46876 15.4322 9.26181 15.277 9.26181 15.0183V13.7249C9.26181 13.5179 9.41702 13.311 9.6757 13.311H10.9691C11.1761 13.311 11.383 13.4662 11.383 13.7249V15.0183C11.383 15.277 11.2278 15.4322 10.9691 15.4322ZM10.9691 10.7759H9.6757C9.46876 10.7759 9.26181 10.6206 9.26181 10.362V9.06853C9.26181 8.86159 9.41702 8.65464 9.6757 8.65464H10.9691C11.1761 8.65464 11.383 8.80985 11.383 9.06853V10.362C11.383 10.6206 11.2278 10.7759 10.9691 10.7759ZM15.1081 15.4322H13.8147C13.6077 15.4322 13.4008 15.277 13.4008 15.0183V13.7249C13.4008 13.5179 13.556 13.311 13.8147 13.311H15.1081C15.315 13.311 15.522 13.4662 15.522 13.7249V15.0183C15.522 15.277 15.3668 15.4322 15.1081 15.4322ZM15.1081 10.7759H13.8147C13.6077 10.7759 13.4008 10.6206 13.4008 10.362V9.06853C13.4008 8.86159 13.556 8.65464 13.8147 8.65464H15.1081C15.315 8.65464 15.522 8.80985 15.522 9.06853V10.362C15.522 10.6206 15.3668 10.7759 15.1081 10.7759Z" fill="#B1B3B8"/>
</svg>
