<svg width="20" height="20" viewBox="0 0 20 20" fill="none" xmlns="http://www.w3.org/2000/svg">
<path d="M2 10C2 14.4112 5.58877 18 10 18C14.4112 18 18 14.4112 18 10C18 5.58877 14.4113 2 10 2C5.58867 2 2 5.58877 2 10ZM10 16.5694C6.37766 16.5694 3.4307 13.6224 3.4307 10C3.4307 8.44607 3.97418 7.01728 4.87962 5.89122L14.1088 15.1204C12.9827 16.0258 11.554 16.5694 10 16.5694ZM16.5693 10C16.5693 11.5539 16.0258 12.9827 15.1205 14.1088L5.89122 4.87962C7.01728 3.97418 8.44607 3.4307 10 3.4307C13.6223 3.4307 16.5693 6.37766 16.5693 10Z" fill="#3A3A3A"/>
</svg>
