<svg width="21" height="20" viewBox="0 0 21 20" fill="none" xmlns="http://www.w3.org/2000/svg">
<path d="M6.90126 18.9999C7.17866 18.9999 7.46266 18.9983 7.75286 18.9983H13.2463C13.5361 18.9983 13.8201 18.9999 14.0975 18.9999C16.6393 18.9999 18.5815 18.8699 18.5815 16.2127C18.5815 13.4315 16.4545 11.1483 13.7381 10.9001C13.7165 11.8731 10.5005 14.2743 10.5005 14.2743C10.5005 14.2743 7.28366 11.8733 7.26186 10.9003C4.54586 11.1483 2.41846 13.4315 2.41846 16.2127C2.41846 18.8699 4.35986 18.9999 6.90126 18.9999ZM12.8999 15.3713C12.8999 15.2921 12.9713 15.2283 13.0601 15.2283H13.9289V14.3599C13.9289 14.2719 13.9923 14.1997 14.0715 14.1997H14.9289C15.0077 14.1997 15.0715 14.2713 15.0715 14.3599V15.2285H15.9399C16.0279 15.2285 16.0999 15.2923 16.0999 15.3715V16.2285C16.0999 16.3077 16.0285 16.3715 15.9399 16.3715H15.0713V17.2399C15.0713 17.3283 15.0073 17.3999 14.9283 17.3999H14.0713C13.9921 17.3999 13.9283 17.3285 13.9283 17.2399V16.3713H13.0599C12.9715 16.3713 12.8997 16.3075 12.8997 16.2283L12.8999 15.3713Z" fill="#B1B3B8"/>
<path d="M10.5015 11.5984C12.9583 11.5984 14.9497 7.9042 14.9497 5.4476C14.9497 2.9914 12.9583 1 10.5015 1C8.04511 1 6.05371 2.9914 6.05371 5.4476C6.05371 7.9042 8.04511 11.5984 10.5015 11.5984Z" fill="#B1B3B8"/>
</svg>
