<svg width="20" height="20" viewBox="0 0 20 20" fill="none" xmlns="http://www.w3.org/2000/svg">
<path d="M17.6418 10.6783C17.6419 11.8626 17.3548 13.0292 16.805 14.078C16.2551 15.1269 15.4591 16.0267 14.485 16.7004C13.511 17.374 12.3881 17.8012 11.2127 17.9455C10.0373 18.0897 8.84441 17.9467 7.73641 17.5286C6.62841 17.1105 5.63837 16.4299 4.85123 15.5451C4.06409 14.6603 3.50334 13.5978 3.21709 12.4487C2.93083 11.2995 2.92763 10.0981 3.20774 8.94747C3.48785 7.79682 4.04292 6.73131 4.82533 5.84233C4.83951 5.82486 4.85744 5.81081 4.87779 5.8012C4.89813 5.79159 4.92038 5.78667 4.94288 5.78682C4.98716 5.78796 5.02975 5.80407 5.0637 5.83253L5.9584 6.72724C5.98689 6.75682 6.00334 6.79595 6.00455 6.837C6.00576 6.87805 5.99164 6.91808 5.96493 6.94928C5.12062 7.93811 4.6375 9.18457 4.59485 10.4841C4.5522 11.7837 4.95256 13.0591 5.73023 14.1012C6.50789 15.1433 7.61668 15.89 8.87463 16.219C10.1326 16.5479 11.465 16.4395 12.6532 15.9115C13.8414 15.3835 14.8149 14.4673 15.4138 13.3132C16.0128 12.1591 16.2017 10.8357 15.9495 9.56013C15.6973 8.28457 15.019 7.13262 14.0259 6.29331C13.0328 5.454 11.7839 4.97718 10.4842 4.94109V6.05458C10.484 6.08315 10.4763 6.11118 10.4619 6.13587C10.4475 6.16055 10.4269 6.18102 10.4021 6.19523C10.3773 6.20945 10.3492 6.2169 10.3207 6.21686C10.2921 6.21682 10.264 6.20927 10.2393 6.19499L6.86944 4.24884C6.84466 4.23471 6.82407 4.21428 6.80974 4.18962C6.79541 4.16496 6.78787 4.13695 6.78787 4.10843C6.78787 4.07991 6.79541 4.0519 6.80974 4.02724C6.82407 4.00258 6.84466 3.98215 6.86944 3.96802L10.2393 2.02187C10.2641 2.00754 10.2922 2 10.3209 2C10.3496 2 10.3777 2.00754 10.4025 2.02187C10.4272 2.03612 10.4477 2.05658 10.4621 2.08121C10.4764 2.10584 10.484 2.13379 10.4842 2.16228V3.3574C12.3965 3.40272 14.2154 4.19367 15.5526 5.56143C16.8899 6.92919 17.6396 8.76545 17.6418 10.6783Z" fill="#FD9809"/>
</svg>
