<svg width="20" height="20" viewBox="0 0 20 20" fill="none" xmlns="http://www.w3.org/2000/svg">
<rect x="3.02246" y="2.29163" width="13.9554" height="15.4167" fill="#27B9B1" stroke="#27B9B1" stroke-linecap="square"/>
<path d="M10.1825 12.635C9.75669 12.635 9.36131 12.5662 8.99635 12.4286C8.63139 12.2858 8.32117 12.0926 8.06569 11.8492C7.81022 11.6059 7.62165 11.3254 7.5 11.008L8.41241 10.6746C8.57664 11.0397 8.81691 11.3201 9.13321 11.5159C9.44951 11.7117 9.81448 11.8096 10.2281 11.8096C10.4714 11.8096 10.6843 11.7778 10.8668 11.7143C11.0493 11.6455 11.1892 11.5503 11.2865 11.4286C11.3899 11.3069 11.4416 11.1667 11.4416 11.008C11.4416 10.791 11.3717 10.6191 11.2318 10.4921C11.0918 10.3651 10.885 10.2646 10.6113 10.1905L9.33394 9.84131C8.82299 9.70374 8.4337 9.49475 8.16606 9.21433C7.89842 8.92861 7.7646 8.59528 7.7646 8.21433C7.7646 7.88099 7.85888 7.58999 8.04745 7.34131C8.23601 7.08734 8.49453 6.88893 8.82299 6.74607C9.15754 6.60322 9.53771 6.53179 9.9635 6.53179C10.371 6.53179 10.7421 6.59528 11.0766 6.72226C11.4112 6.84396 11.6971 7.01327 11.9343 7.2302C12.1776 7.44713 12.354 7.69845 12.4635 7.98417L11.5693 8.32544C11.4355 8.01327 11.2257 7.77253 10.9398 7.60322C10.66 7.4339 10.3346 7.34925 9.9635 7.34925C9.73844 7.34925 9.54075 7.38364 9.37044 7.45242C9.20012 7.51591 9.0663 7.61115 8.96898 7.73814C8.87774 7.85983 8.83212 8.00269 8.83212 8.16671C8.83212 8.35718 8.90207 8.5265 9.04197 8.67464C9.18187 8.82279 9.39477 8.9339 9.68066 9.00798L10.8668 9.33337C11.4082 9.47623 11.8157 9.68258 12.0894 9.95242C12.3631 10.217 12.5 10.5477 12.5 10.9445C12.5 11.2725 12.3996 11.5635 12.1989 11.8175C12.0043 12.0715 11.7336 12.2725 11.3869 12.4207C11.0401 12.5635 10.6387 12.635 10.1825 12.635ZM9.76277 13.3334V5.83337H10.4927V13.3334H9.76277Z" fill="white"/>
</svg>
