<svg width="17" height="16" viewBox="0 0 17 16" fill="none" xmlns="http://www.w3.org/2000/svg">
<g id="Group">
<path id="Vector" d="M15.0223 0.239258H13.4702V1.79137C13.4702 2.10179 13.2116 2.30874 12.9529 2.30874C12.6942 2.30874 12.4355 2.10179 12.4355 1.79137V0.239258H4.15759V1.79137C4.15759 2.10179 3.89891 2.30874 3.64022 2.30874C3.38154 2.30874 3.12285 2.10179 3.12285 1.79137V0.239258H1.57075C0.794692 0.239258 0.225586 0.911838 0.225586 1.79137V3.6539H16.7814V1.79137C16.7814 0.911838 15.8501 0.239258 15.0223 0.239258ZM0.225586 4.74037V14.2082C0.225586 15.1395 0.794692 15.7603 1.62248 15.7603H15.0741C15.9019 15.7603 16.8331 15.0878 16.8331 14.2082V4.74037H0.225586ZM4.83017 13.4322H3.58849C3.38154 13.4322 3.17459 13.277 3.17459 13.0183V11.7249C3.17459 11.5179 3.3298 11.311 3.58849 11.311H4.88191C5.08886 11.311 5.29581 11.4662 5.29581 11.7249V13.0183C5.24407 13.277 5.08886 13.4322 4.83017 13.4322ZM4.83017 8.77585H3.58849C3.38154 8.77585 3.17459 8.62064 3.17459 8.36196V7.06853C3.17459 6.86159 3.3298 6.65464 3.58849 6.65464H4.88191C5.08886 6.65464 5.29581 6.80985 5.29581 7.06853V8.36196C5.24407 8.62064 5.08886 8.77585 4.83017 8.77585ZM8.96913 13.4322H7.6757C7.46876 13.4322 7.26181 13.277 7.26181 13.0183V11.7249C7.26181 11.5179 7.41702 11.311 7.6757 11.311H8.96913C9.17607 11.311 9.38302 11.4662 9.38302 11.7249V13.0183C9.38302 13.277 9.22781 13.4322 8.96913 13.4322ZM8.96913 8.77585H7.6757C7.46876 8.77585 7.26181 8.62064 7.26181 8.36196V7.06853C7.26181 6.86159 7.41702 6.65464 7.6757 6.65464H8.96913C9.17607 6.65464 9.38302 6.80985 9.38302 7.06853V8.36196C9.38302 8.62064 9.22781 8.77585 8.96913 8.77585ZM13.1081 13.4322H11.8147C11.6077 13.4322 11.4008 13.277 11.4008 13.0183V11.7249C11.4008 11.5179 11.556 11.311 11.8147 11.311H13.1081C13.315 11.311 13.522 11.4662 13.522 11.7249V13.0183C13.522 13.277 13.3668 13.4322 13.1081 13.4322ZM13.1081 8.77585H11.8147C11.6077 8.77585 11.4008 8.62064 11.4008 8.36196V7.06853C11.4008 6.86159 11.556 6.65464 11.8147 6.65464H13.1081C13.315 6.65464 13.522 6.80985 13.522 7.06853V8.36196C13.522 8.62064 13.3668 8.77585 13.1081 8.77585Z" fill="#B1B3B8"/>
</g>
</svg>
