<svg width="21" height="20" viewBox="0 0 21 20" fill="none" xmlns="http://www.w3.org/2000/svg">
<g id="Iconly/Sharp/Light/Bill">
<rect id="Rectangle 1130" x="3.52246" y="2.29169" width="13.9554" height="15.4167" stroke="#B1B3B8" stroke-linecap="square"/>
<path id="$" d="M10.6825 12.6349C10.2567 12.6349 9.86131 12.5661 9.49635 12.4286C9.13139 12.2857 8.82117 12.0926 8.56569 11.8492C8.31022 11.6058 8.12165 11.3254 8 11.0079L8.91241 10.6746C9.07664 11.0397 9.31691 11.3201 9.63321 11.5159C9.94951 11.7116 10.3145 11.8095 10.7281 11.8095C10.9714 11.8095 11.1843 11.7778 11.3668 11.7143C11.5493 11.6455 11.6892 11.5502 11.7865 11.4286C11.8899 11.3069 11.9416 11.1666 11.9416 11.0079C11.9416 10.791 11.8717 10.619 11.7318 10.492C11.5918 10.3651 11.385 10.2645 11.1113 10.1905L9.83394 9.84125C9.32299 9.70368 8.9337 9.49469 8.66606 9.21427C8.39842 8.92855 8.2646 8.59522 8.2646 8.21427C8.2646 7.88093 8.35888 7.58993 8.54745 7.34125C8.73601 7.08728 8.99453 6.88887 9.32299 6.74601C9.65754 6.60315 10.0377 6.53173 10.4635 6.53173C10.871 6.53173 11.2421 6.59522 11.5766 6.7222C11.9112 6.8439 12.1971 7.01321 12.4343 7.23014C12.6776 7.44707 12.854 7.69839 12.9635 7.98411L12.0693 8.32538C11.9355 8.01321 11.7257 7.77247 11.4398 7.60315C11.16 7.43384 10.8346 7.34919 10.4635 7.34919C10.2384 7.34919 10.0408 7.38358 9.87044 7.45236C9.70012 7.51585 9.5663 7.61109 9.46898 7.73808C9.37774 7.85977 9.33212 8.00263 9.33212 8.16665C9.33212 8.35712 9.40207 8.52643 9.54197 8.67458C9.68187 8.82273 9.89477 8.93384 10.1807 9.00792L11.3668 9.33331C11.9082 9.47617 12.3157 9.68252 12.5894 9.95236C12.8631 10.2169 13 10.5476 13 10.9444C13 11.2725 12.8996 11.5635 12.6989 11.8174C12.5043 12.0714 12.2336 12.2725 11.8869 12.4206C11.5401 12.5635 11.1387 12.6349 10.6825 12.6349ZM10.2628 13.3333V5.83331H10.9927V13.3333H10.2628Z" fill="#B1B3B8"/>
</g>
</svg>
