<svg width="16" height="16" viewBox="0 0 16 16" fill="none" xmlns="http://www.w3.org/2000/svg">
<rect width="16" height="16" fill="#E5E5E5"/>
<g id="Qu&#225;&#186;&#163;n l&#195;&#189; ca kh&#195;&#161;m">
<path d="M-1233 -1992C-1233 -1993.1 -1232.1 -1994 -1231 -1994H3013C3014.1 -1994 3015 -1993.1 3015 -1992V1572C3015 1573.1 3014.1 1574 3013 1574H-1231C-1232.1 1574 -1233 1573.1 -1233 1572V-1992Z" fill="#CCCCCC"/>
<path d="M-1231 -1993H3013V-1995H-1231V-1993ZM3014 -1992V1572H3016V-1992H3014ZM3013 1573H-1231V1575H3013V1573ZM-1232 1572V-1992H-1234V1572H-1232ZM-1231 1573C-1231.55 1573 -1232 1572.55 -1232 1572H-1234C-1234 1573.66 -1232.66 1575 -1231 1575V1573ZM3014 1572C3014 1572.55 3013.55 1573 3013 1573V1575C3014.66 1575 3016 1573.66 3016 1572H3014ZM3013 -1993C3013.55 -1993 3014 -1992.55 3014 -1992H3016C3016 -1993.66 3014.66 -1995 3013 -1995V-1993ZM-1231 -1995C-1232.66 -1995 -1234 -1993.66 -1234 -1992H-1232C-1232 -1992.55 -1231.55 -1993 -1231 -1993V-1995Z" fill="black" fill-opacity="0.1"/>
<g id="Qu&#225;&#186;&#163;n l&#195;&#189; ca kh&#195;&#161;m_2">
<rect width="1440" height="900" transform="translate(-627 -495)" fill="#EBEBEB"/>
<g id="Qu&#225;&#186;&#163;n l&#195;&#189; ca kh&#195;&#161;m ver2">
<g clip-path="url(#clip0_1544_188187)">
<rect x="-619" y="-431" width="1424" height="828" rx="4" fill="white"/>
<g id="Group 36934">
<g id="Component 3">
<g id="Group 36933">
<rect id="Rectangle 1190" x="-128.75" y="-176.75" width="185.5" height="197.5" fill="white" stroke="#CFCFCF" stroke-width="0.5"/>
</g>
</g>
</g>
<g id="Component 11">
<g id="Components/Tooltip/Up" filter="url(#filter0_d_1544_188187)">
<g id="Frame">
<path fill-rule="evenodd" clip-rule="evenodd" d="M149.415 -66.1054C148.621 -67.2689 146.905 -67.2689 146.111 -66.1054L140.468 -57.8376H-5.2C-9.68042 -57.8376 -11.9206 -57.8376 -13.6319 -56.9657C-15.1372 -56.1987 -16.3611 -54.9749 -17.1281 -53.4696C-18 -51.7583 -18 -49.518 -18 -45.0376V81.1999C-18 85.6803 -18 87.9205 -17.1281 89.6318C-16.3611 91.1371 -15.1372 92.3609 -13.6319 93.1279C-11.9206 93.9999 -9.68042 93.9999 -5.20001 93.9999H299.2C303.68 93.9999 305.921 93.9999 307.632 93.1279C309.137 92.3609 310.361 91.1371 311.128 89.6318C312 87.9205 312 85.6803 312 81.1999V-45.0376C312 -49.5181 312 -51.7583 311.128 -53.4696C310.361 -54.9749 309.137 -56.1987 307.632 -56.9657C305.921 -57.8376 303.68 -57.8376 299.2 -57.8376H155.057L149.415 -66.1054Z" fill="white"/>
<path d="M146.111 -66.1054L146.524 -65.8236V-65.8236L146.111 -66.1054ZM149.415 -66.1054L149.002 -65.8236V-65.8236L149.415 -66.1054ZM140.468 -57.8376V-57.3376H140.732L140.881 -57.5558L140.468 -57.8376ZM-13.6319 -56.9657L-13.4049 -56.5202L-13.6319 -56.9657ZM-17.1281 -53.4696L-16.6825 -53.2426L-17.1281 -53.4696ZM-17.1281 89.6318L-17.5736 89.8588H-17.5736L-17.1281 89.6318ZM-13.6319 93.1279L-13.4049 92.6824L-13.4049 92.6824L-13.6319 93.1279ZM307.632 93.1279L307.859 93.5734V93.5734L307.632 93.1279ZM311.128 89.6318L311.574 89.8588V89.8588L311.128 89.6318ZM311.128 -53.4696L311.574 -53.6966V-53.6966L311.128 -53.4696ZM307.632 -56.9657L307.859 -57.4112V-57.4112L307.632 -56.9657ZM155.057 -57.8376L154.644 -57.5558L154.793 -57.3376H155.057V-57.8376ZM146.524 -65.8236C147.119 -66.6962 148.406 -66.6962 149.002 -65.8236L149.828 -66.3873C148.835 -67.8416 146.69 -67.8416 145.698 -66.3873L146.524 -65.8236ZM140.881 -57.5558L146.524 -65.8236L145.698 -66.3873L140.055 -58.1195L140.881 -57.5558ZM-5.2 -57.3376H140.468V-58.3376H-5.2V-57.3376ZM-13.4049 -56.5202C-12.6315 -56.9143 -11.7168 -57.1238 -10.4137 -57.2303C-9.10474 -57.3372 -7.44846 -57.3376 -5.2 -57.3376V-58.3376C-7.43196 -58.3376 -9.136 -58.338 -10.4951 -58.227C-11.86 -58.1155 -12.921 -57.8891 -13.8589 -57.4112L-13.4049 -56.5202ZM-16.6825 -53.2426C-15.9635 -54.6538 -14.8161 -55.8011 -13.4049 -56.5202L-13.8589 -57.4112C-15.4583 -56.5963 -16.7586 -55.2959 -17.5736 -53.6966L-16.6825 -53.2426ZM-17.5 -45.0376C-17.5 -47.2861 -17.4996 -48.9424 -17.3927 -50.2513C-17.2862 -51.5544 -17.0766 -52.4691 -16.6825 -53.2426L-17.5736 -53.6966C-18.0514 -52.7587 -18.2778 -51.6977 -18.3893 -50.3327C-18.5004 -48.9736 -18.5 -47.2696 -18.5 -45.0376H-17.5ZM-17.5 81.1999V-45.0376H-18.5V81.1999H-17.5ZM-16.6825 89.4048C-17.0766 88.6314 -17.2862 87.7166 -17.3927 86.4135C-17.4996 85.1046 -17.5 83.4483 -17.5 81.1999H-18.5C-18.5 83.4318 -18.5004 85.1359 -18.3893 86.495C-18.2778 87.8599 -18.0514 88.9209 -17.5736 89.8588L-16.6825 89.4048ZM-13.4049 92.6824C-14.8161 91.9634 -15.9635 90.816 -16.6825 89.4048L-17.5736 89.8588C-16.7586 91.4582 -15.4583 92.7585 -13.8589 93.5734L-13.4049 92.6824ZM-5.20001 93.4999C-7.44847 93.4999 -9.10474 93.4995 -10.4137 93.3925C-11.7168 93.2861 -12.6315 93.0765 -13.4049 92.6824L-13.8589 93.5734C-12.921 94.0513 -11.86 94.2777 -10.4951 94.3892C-9.13601 94.5002 -7.43197 94.4999 -5.20001 94.4999V93.4999ZM299.2 93.4999H-5.20001V94.4999H299.2V93.4999ZM307.405 92.6824C306.632 93.0765 305.717 93.2861 304.414 93.3925C303.105 93.4995 301.448 93.4999 299.2 93.4999V94.4999C301.432 94.4999 303.136 94.5002 304.495 94.3892C305.86 94.2777 306.921 94.0513 307.859 93.5734L307.405 92.6824ZM310.683 89.4048C309.964 90.816 308.816 91.9634 307.405 92.6824L307.859 93.5734C309.458 92.7585 310.759 91.4582 311.574 89.8588L310.683 89.4048ZM311.5 81.1999C311.5 83.4483 311.5 85.1046 311.393 86.4135C311.286 87.7166 311.077 88.6314 310.683 89.4048L311.574 89.8588C312.051 88.9209 312.278 87.8599 312.389 86.495C312.5 85.1359 312.5 83.4318 312.5 81.1999H311.5ZM311.5 -45.0376V81.1999H312.5V-45.0376H311.5ZM310.683 -53.2426C311.077 -52.4691 311.286 -51.5544 311.393 -50.2513C311.5 -48.9424 311.5 -47.2861 311.5 -45.0376H312.5C312.5 -47.2696 312.5 -48.9736 312.389 -50.3327C312.278 -51.6977 312.051 -52.7587 311.574 -53.6966L310.683 -53.2426ZM307.405 -56.5202C308.816 -55.8011 309.964 -54.6538 310.683 -53.2426L311.574 -53.6966C310.759 -55.2959 309.458 -56.5963 307.859 -57.4112L307.405 -56.5202ZM299.2 -57.3376C301.448 -57.3376 303.105 -57.3372 304.414 -57.2303C305.717 -57.1238 306.632 -56.9143 307.405 -56.5202L307.859 -57.4112C306.921 -57.8891 305.86 -58.1155 304.495 -58.227C303.136 -58.338 301.432 -58.3376 299.2 -58.3376V-57.3376ZM155.057 -57.3376H299.2V-58.3376H155.057V-57.3376ZM149.002 -65.8236L154.644 -57.5558L155.47 -58.1195L149.828 -66.3873L149.002 -65.8236Z" fill="#EBEBEB"/>
</g>
</g>
<g id="Frame 1639">
<g id="Frame 1635">
<g id="Frame 1638">
<circle id="Ellipse 16" cx="8" cy="8" r="8" fill="#27B9B1"/>
</g>
</g>
</g>
</g>
</g>
</g>
</g>
</g>
<defs>
<filter id="filter0_d_1544_188187" x="-38.5" y="-83.478" width="371" height="201.978" filterUnits="userSpaceOnUse" color-interpolation-filters="sRGB">
<feFlood flood-opacity="0" result="BackgroundImageFix"/>
<feColorMatrix in="SourceAlpha" type="matrix" values="0 0 0 0 0 0 0 0 0 0 0 0 0 0 0 0 0 0 127 0" result="hardAlpha"/>
<feOffset dy="4"/>
<feGaussianBlur stdDeviation="10"/>
<feComposite in2="hardAlpha" operator="out"/>
<feColorMatrix type="matrix" values="0 0 0 0 0 0 0 0 0 0 0 0 0 0 0 0 0 0 0.15 0"/>
<feBlend mode="normal" in2="BackgroundImageFix" result="effect1_dropShadow_1544_188187"/>
<feBlend mode="normal" in="SourceGraphic" in2="effect1_dropShadow_1544_188187" result="shape"/>
</filter>
<clipPath id="clip0_1544_188187">
<rect x="-619" y="-431" width="1424" height="828" rx="4" fill="white"/>
</clipPath>
</defs>
</svg>
