<svg width="640" height="44" viewBox="0 0 640 44" fill="none" xmlns="http://www.w3.org/2000/svg">
<g clip-path="url(#clip0_0_60)">
<rect width="640" height="44" fill="#00397E"/>
<g opacity="0.2">
<path d="M-23.5634 -20.8592H-32.1197C-39.7856 -20.8592 -46 -14.6447 -46 -6.97888C-46 0.686991 -39.7856 6.9014 -32.1197 6.9014H-26.9859C-23.6255 6.9014 -20.9014 9.62553 -20.9014 12.9859L-20.9014 18.1197C-20.9014 25.7856 -14.687 32 -7.02113 32C0.644738 32 6.85915 25.7856 6.85915 18.1197V9.56338H-4.5493C-15.0505 9.56338 -23.5634 1.05048 -23.5634 -9.45071V-20.8592Z" fill="white"/>
<path d="M-15.9577 -20.8592L-8.35211 -20.8592C0.048839 -20.8592 6.85915 -14.0488 6.85915 -5.64789V1.95774H-4.5493C-10.85 1.95774 -15.9577 -3.15 -15.9577 -9.45071V-20.8592Z" fill="white"/>
<path fill-rule="evenodd" clip-rule="evenodd" d="M-21.662 -33.2183C-21.662 -41.9343 -14.5963 -49 -5.88028 -49C2.8357 -49 9.90141 -41.9343 9.90141 -33.2183V-28.0845C9.90141 -25.7742 11.7742 -23.9014 14.0845 -23.9014H19.2183C27.9343 -23.9014 35 -16.8357 35 -8.11972C35 0.596263 27.9343 7.66197 19.2183 7.66197H-4.5493C-14.0004 7.66197 -21.662 0.000361508 -21.662 -9.45071V-33.2183ZM-5.88028 -45.1972C-12.496 -45.1972 -17.8592 -39.8341 -17.8592 -33.2183V-9.45071C-17.8592 -2.09988 -11.9001 3.85915 -4.5493 3.85915H19.2183C25.8341 3.85915 31.1972 -1.50397 31.1972 -8.11972C31.1972 -14.7355 25.8341 -20.0986 19.2183 -20.0986H14.0845C9.67401 -20.0986 6.09859 -23.674 6.09859 -28.0845V-33.2183C6.09859 -39.8341 0.735467 -45.1972 -5.88028 -45.1972Z" fill="white"/>
</g>
<g opacity="0.2">
<path d="M200.376 38.5728H191.08C182.751 38.5728 176 45.3242 176 53.6526C176 61.9809 182.751 68.7324 191.08 68.7324H196.657C200.308 68.7324 203.268 71.6919 203.268 75.3427L203.268 80.9202C203.268 89.2485 210.019 96 218.347 96C226.676 96 233.427 89.2485 233.427 80.9202V71.6244H221.033C209.624 71.6244 200.376 62.3758 200.376 50.9671V38.5728Z" fill="white"/>
<path d="M208.638 38.5728L216.901 38.5728C226.028 38.5728 233.427 45.9716 233.427 55.0986V63.3615H221.033C214.188 63.3615 208.638 57.8123 208.638 50.9671V38.5728Z" fill="white"/>
<path fill-rule="evenodd" clip-rule="evenodd" d="M202.441 25.1455C202.441 15.6763 210.118 8 219.587 8C229.056 8 236.732 15.6763 236.732 25.1455V30.723C236.732 33.2329 238.767 35.2676 241.277 35.2676H246.854C256.324 35.2676 264 42.9439 264 52.4131C264 61.8824 256.324 69.5587 246.854 69.5587H221.033C210.765 69.5587 202.441 61.235 202.441 50.9671V25.1455ZM219.587 12.1315C212.399 12.1315 206.573 17.9581 206.573 25.1455V50.9671C206.573 58.9532 213.047 65.4272 221.033 65.4272H246.854C254.042 65.4272 259.869 59.6006 259.869 52.4131C259.869 45.2257 254.042 39.3991 246.854 39.3991H241.277C236.485 39.3991 232.601 35.5147 232.601 30.723V25.1455C232.601 17.9581 226.774 12.1315 219.587 12.1315Z" fill="white"/>
</g>
<g opacity="0.2">
<path d="M422.376 -28.4272H413.08C404.751 -28.4272 398 -21.6758 398 -13.3474C398 -5.01907 404.751 1.73239 413.08 1.73239H418.657C422.308 1.73239 425.268 4.69194 425.268 8.34272L425.268 13.9202C425.268 22.2485 432.019 29 440.347 29C448.676 29 455.427 22.2485 455.427 13.9202V4.62441H443.033C431.624 4.62441 422.376 -4.62417 422.376 -16.0329V-28.4272Z" fill="white"/>
<path d="M430.638 -28.4272L438.901 -28.4272C448.028 -28.4272 455.427 -21.0284 455.427 -11.9014V-3.6385H443.033C436.188 -3.6385 430.638 -9.18765 430.638 -16.0329V-28.4272Z" fill="white"/>
<path fill-rule="evenodd" clip-rule="evenodd" d="M424.441 -41.8545C424.441 -51.3237 432.118 -59 441.587 -59C451.056 -59 458.732 -51.3237 458.732 -41.8545V-36.277C458.732 -33.7671 460.767 -31.7324 463.277 -31.7324H468.854C478.324 -31.7324 486 -24.0561 486 -14.5869C486 -5.11764 478.324 2.55868 468.854 2.55868H443.033C432.765 2.55868 424.441 -5.76504 424.441 -16.0329V-41.8545ZM441.587 -54.8685C434.399 -54.8685 428.573 -49.0419 428.573 -41.8545V-16.0329C428.573 -8.04678 435.047 -1.57277 443.033 -1.57277H468.854C476.042 -1.57277 481.869 -7.39938 481.869 -14.5869C481.869 -21.7743 476.042 -27.6009 468.854 -27.6009H463.277C458.485 -27.6009 454.601 -31.4853 454.601 -36.277V-41.8545C454.601 -49.0419 448.774 -54.8685 441.587 -54.8685Z" fill="white"/>
</g>
</g>
<defs>
<clipPath id="clip0_0_60">
<rect width="640" height="44" fill="white"/>
</clipPath>
</defs>
</svg>
