<svg width="16" height="16" viewBox="0 0 16 16" fill="none" xmlns="http://www.w3.org/2000/svg">
    <g clip-path="url(#clip0_4447_902)">
        <path
            d="M14.3333 12H12.3333C12.2449 12 12.1601 11.9649 12.0976 11.9024C12.0351 11.8399 12 11.7551 12 11.6667C12 11.5783 12.0351 11.4935 12.0976 11.431C12.1601 11.3685 12.2449 11.3333 12.3333 11.3333H14.3333C14.8847 11.3333 15.3333 10.8847 15.3333 10.3333V5.66667C15.3333 5.11533 14.8847 4.66667 14.3333 4.66667H1.66667C1.11533 4.66667 0.666667 5.11533 0.666667 5.66667V10.3333C0.666667 10.8847 1.11533 11.3333 1.66667 11.3333H3.66667C3.75507 11.3333 3.83986 11.3685 3.90237 11.431C3.96488 11.4935 4 11.5783 4 11.6667C4 11.7551 3.96488 11.8399 3.90237 11.9024C3.83986 11.9649 3.75507 12 3.66667 12H1.66667C1.2248 11.9995 0.801186 11.8237 0.48874 11.5113C0.176294 11.1988 0.000529286 10.7752 0 10.3333V5.66667C0 4.748 0.747333 4 1.66667 4H14.3333C15.2527 4 16 4.748 16 5.66667V10.3333C16 11.252 15.2527 12 14.3333 12ZM9.66667 14H5.66667C5.57826 14 5.49348 13.9649 5.43096 13.9024C5.36845 13.8399 5.33333 13.7551 5.33333 13.6667C5.33333 13.5783 5.36845 13.4935 5.43096 13.431C5.49348 13.3685 5.57826 13.3333 5.66667 13.3333H9.66667C9.75507 13.3333 9.83986 13.3685 9.90237 13.431C9.96488 13.4935 10 13.5783 10 13.6667C10 13.7551 9.96488 13.8399 9.90237 13.9024C9.83986 13.9649 9.75507 14 9.66667 14ZM9.66667 12.6667H5.66667C5.57826 12.6667 5.49348 12.6315 5.43096 12.569C5.36845 12.5065 5.33333 12.4217 5.33333 12.3333C5.33333 12.2449 5.36845 12.1601 5.43096 12.0976C5.49348 12.0351 5.57826 12 5.66667 12H9.66667C9.75507 12 9.83986 12.0351 9.90237 12.0976C9.96488 12.1601 10 12.2449 10 12.3333C10 12.4217 9.96488 12.5065 9.90237 12.569C9.83986 12.6315 9.75507 12.6667 9.66667 12.6667Z"
            fill="#5E11E9" />
        <path
            d="M6.99999 11.3333H5.66666C5.57826 11.3333 5.49347 11.2982 5.43096 11.2357C5.36845 11.1732 5.33333 11.0884 5.33333 11C5.33333 10.9116 5.36845 10.8268 5.43096 10.7643C5.49347 10.7018 5.57826 10.6667 5.66666 10.6667H6.99999C7.0884 10.6667 7.17319 10.7018 7.2357 10.7643C7.29821 10.8268 7.33333 10.9116 7.33333 11C7.33333 11.0884 7.29821 11.1732 7.2357 11.2357C7.17319 11.2982 7.0884 11.3333 6.99999 11.3333ZM12.3333 4.66667C12.2449 4.66667 12.1601 4.63155 12.0976 4.56904C12.0351 4.50652 12 4.42174 12 4.33333V1.66667C12 1.11533 11.5513 0.666667 11 0.666667H4.99999C4.44866 0.666667 3.99999 1.11533 3.99999 1.66667V4.33333C3.99999 4.42174 3.96488 4.50652 3.90236 4.56904C3.83985 4.63155 3.75507 4.66667 3.66666 4.66667C3.57826 4.66667 3.49347 4.63155 3.43096 4.56904C3.36845 4.50652 3.33333 4.42174 3.33333 4.33333V1.66667C3.33333 0.748 4.08066 0 4.99999 0H11C11.9193 0 12.6667 0.748 12.6667 1.66667V4.33333C12.6667 4.42174 12.6315 4.50652 12.569 4.56904C12.5065 4.63155 12.4217 4.66667 12.3333 4.66667Z"
            fill="#5E11E9" />
        <path
            d="M11 16H4.99999C4.55813 15.9995 4.13451 15.8237 3.82207 15.5113C3.50962 15.1988 3.33386 14.7752 3.33333 14.3334V9.00002C3.33333 8.91161 3.36845 8.82683 3.43096 8.76432C3.49347 8.70181 3.57826 8.66669 3.66666 8.66669H12.3333C12.4217 8.66669 12.5065 8.70181 12.569 8.76432C12.6315 8.82683 12.6667 8.91161 12.6667 9.00002V14.3334C12.6667 15.252 11.9193 16 11 16ZM3.99999 9.33335V14.3334C3.99999 14.8847 4.44866 15.3334 4.99999 15.3334H11C11.5513 15.3334 12 14.8847 12 14.3334V9.33335H3.99999Z"
            fill="#5E11E9" />
    </g>
    <defs>
        <clipPath id="clip0_4447_902">
            <rect width="16" height="16" fill="white" />
        </clipPath>
    </defs>
</svg>