<svg width="28" height="28" viewBox="0 0 28 28" fill="none" xmlns="http://www.w3.org/2000/svg">
    <path d="M16.1875 10.2402C16.1875 10.2402 17.0201 9.83008 14 9.83008C12.9184 9.83008 11.8611 10.1508 10.9617 10.7517C10.0624 11.3526 9.36145 12.2067 8.94754 13.206C8.53362 14.2053 8.42532 15.3049 8.63633 16.3657C8.84735 17.4266 9.36819 18.401 10.133 19.1658C10.8978 19.9306 11.8723 20.4515 12.9331 20.6625C13.9939 20.8735 15.0935 20.7652 16.0928 20.3513C17.0921 19.9374 17.9462 19.2364 18.5471 18.3371C19.148 17.4378 19.4688 16.3804 19.4688 15.2988" stroke="#27B9B1" stroke-width="1.3125" stroke-miterlimit="10" stroke-linecap="round"/>
    <path d="M14 7.23242L16.7344 9.9668L14 12.7012" stroke="#27B9B1" stroke-width="1.3125" stroke-linecap="round" stroke-linejoin="round"/>
</svg>
    