<svg width="21" height="20" viewBox="0 0 21 20" fill="none" xmlns="http://www.w3.org/2000/svg">
<path d="M3.71952 6.31139V6.12541C3.71952 4.52134 5.02137 3.21948 6.62545 3.21948H14.3746C15.9787 3.21948 17.2805 4.52134 17.2805 6.12541V6.31139C15.072 5.69146 12.7938 5.37375 10.5 5.37375C8.20627 5.37375 5.92802 5.69921 3.71952 6.31139ZM18.7916 9.98449L17.7687 15.0757C17.5362 16.2148 16.4281 16.9587 15.2812 16.7417C12.1118 16.1296 8.89595 16.1296 5.7188 16.7417C5.57931 16.765 5.44758 16.7805 5.31584 16.7805C4.32395 16.7805 3.4328 16.0831 3.23132 15.0757L2.20843 9.98449C1.99146 8.89186 2.63464 7.83022 3.71952 7.51251C8.15203 6.21065 12.848 6.21065 17.2805 7.51251C18.3577 7.83022 19.0086 8.89186 18.7916 9.98449ZM12.631 11.7125C12.631 11.3948 12.3676 11.1314 12.0499 11.1314H11.0812V10.1627C11.0812 9.845 10.8177 9.58153 10.5 9.58153C10.1823 9.58153 9.91884 9.845 9.91884 10.1627V11.1314H8.95019C8.63248 11.1314 8.36901 11.3948 8.36901 11.7125C8.36901 12.0303 8.63248 12.2937 8.95019 12.2937H9.91884V13.2624C9.91884 13.5801 10.1823 13.8436 10.5 13.8436C10.8177 13.8436 11.0812 13.5801 11.0812 13.2624V12.2937H12.0499C12.3676 12.2937 12.631 12.0303 12.631 11.7125Z" fill="#B1B3B8"/>
</svg>
